# Blender v2.93.0 OBJ File: 'Spas_12_shotgun_shell.blend'
# www.blender.org
mtllib Spas_12_shotgun_shell.mtl
o shotgun_shell_Cube.002
v 0.045413 -0.080773 -0.045427
v 0.045413 -0.080789 0.045399
v 0.045413 0.252923 -0.045369
v 0.045413 0.252907 0.045457
v -0.045413 -0.080773 -0.045427
v -0.045413 -0.080789 0.045399
v -0.045413 0.252923 -0.045369
v -0.045413 0.252907 0.045457
v -0.000000 0.252925 -0.058782
v -0.000000 0.252905 0.058870
v 0.000000 -0.080771 -0.058840
v 0.000000 -0.080791 0.058812
v 0.057290 -0.080781 -0.000014
v 0.057290 0.252915 0.000044
v -0.057290 0.252915 0.000044
v -0.057290 -0.080781 -0.000014
v -0.000000 0.252915 0.000044
v -0.022707 0.252905 0.055733
v -0.022707 -0.080771 -0.055703
v -0.022707 0.252925 -0.055645
v -0.022707 -0.080791 0.055675
v -0.031689 0.252915 0.000044
v 0.022707 0.252925 -0.055645
v 0.022707 -0.080791 0.055675
v 0.022707 0.252905 0.055733
v 0.022707 -0.080771 -0.055703
v 0.031689 0.252915 0.000044
v 0.052768 -0.080785 0.022693
v 0.052768 0.252911 0.022750
v -0.052768 0.252911 0.022750
v -0.052768 -0.080785 0.022693
v -0.000000 0.252910 0.029457
v -0.027198 0.252910 0.027888
v 0.027198 0.252910 0.027888
v 0.052768 0.252919 -0.022663
v -0.052768 0.252919 -0.022663
v -0.052768 -0.080777 -0.022721
v -0.000000 0.252920 -0.029369
v 0.052768 -0.080777 -0.022721
v -0.027198 0.252920 -0.027801
v 0.027198 0.252920 -0.027801
v 0.040773 -0.100024 0.019564
v 0.035327 -0.100027 0.036378
v -0.040773 -0.100018 -0.019598
v -0.035327 -0.100015 -0.036413
v -0.019238 -0.100013 -0.043694
v 0.019238 -0.100029 0.043659
v 0.019238 -0.100013 -0.043694
v 0.000000 -0.100013 -0.046352
v -0.019238 -0.100029 0.043659
v 0.000000 -0.100029 0.046317
v 0.040773 -0.100018 -0.019598
v 0.044673 -0.100021 -0.000017
v -0.040773 -0.100024 0.019564
v -0.044673 -0.100021 -0.000017
v -0.056167 -0.109474 -0.000019
v 0.056167 -0.109474 -0.000019
v -0.035327 -0.100027 0.036378
v 0.035327 -0.100015 -0.036413
v 0.000000 -0.109464 -0.058274
v 0.052768 -0.100025 0.022689
v 0.045413 -0.100029 0.045396
v -0.052768 -0.100017 -0.022724
v -0.045413 -0.100013 -0.045431
v -0.022707 -0.100011 -0.055706
v 0.022707 -0.100031 0.055672
v 0.022707 -0.100011 -0.055706
v 0.000000 -0.100011 -0.058843
v -0.022707 -0.100031 0.055672
v 0.000000 -0.100031 0.058809
v 0.052768 -0.100017 -0.022724
v 0.057290 -0.100021 -0.000017
v -0.052768 -0.100025 0.022689
v -0.057290 -0.100021 -0.000017
v -0.045413 -0.100029 0.045396
v 0.045413 -0.100013 -0.045431
v 0.000000 -0.127529 0.036958
v 0.000000 -0.107123 -0.046353
v 0.056167 -0.127522 -0.000022
v -0.056167 -0.127522 -0.000022
v -0.024187 -0.127513 -0.054936
v -0.034195 -0.127516 -0.035030
v 0.044673 -0.107132 -0.000019
v -0.044673 -0.107132 -0.000019
v -0.039841 -0.127522 -0.000022
v -0.019238 -0.107124 -0.043695
v -0.034195 -0.127529 0.034986
v 0.039841 -0.127522 -0.000022
v 0.019238 -0.107124 -0.043695
v 0.000000 -0.127522 -0.000022
v 0.000000 -0.107140 0.046316
v -0.019238 -0.107139 0.043658
v 0.019238 -0.107139 0.043658
v -0.040773 -0.107135 0.019562
v 0.040773 -0.107135 0.019562
v -0.040773 -0.107128 -0.019600
v 0.040773 -0.107128 -0.019600
v 0.035327 -0.107138 0.036377
v -0.035327 -0.107125 -0.036414
v -0.035327 -0.107138 0.036377
v 0.035327 -0.107125 -0.036414
v -0.024187 -0.109464 -0.054933
v 0.024187 -0.109464 -0.054933
v 0.000000 -0.109484 0.058236
v -0.024187 -0.109483 0.054895
v 0.024187 -0.109483 0.054895
v -0.051263 -0.109478 0.024600
v 0.051263 -0.109478 0.024600
v -0.051263 -0.109470 -0.024638
v 0.051263 -0.109470 -0.024638
v 0.044416 -0.109482 0.045740
v -0.044416 -0.109466 -0.045778
v -0.044416 -0.109482 0.045740
v 0.044416 -0.109466 -0.045778
v 0.000000 -0.127516 -0.037002
v 0.000000 -0.127512 -0.058278
v 0.034195 -0.127516 -0.035030
v 0.024187 -0.127513 -0.054936
v 0.034195 -0.127529 0.034986
v 0.000000 -0.127533 0.058233
v -0.024187 -0.127532 0.054892
v 0.024187 -0.127532 0.054892
v -0.051263 -0.127527 0.024597
v 0.051263 -0.127527 0.024597
v -0.051263 -0.127518 -0.024641
v 0.051263 -0.127518 -0.024641
v 0.044416 -0.127530 0.045737
v -0.044416 -0.127514 -0.045781
v -0.044416 -0.127530 0.045737
v 0.044416 -0.127514 -0.045781
vn 0.9513 -0.0001 0.3081
vn -0.0000 1.0000 0.0002
vn -0.9513 -0.0001 0.3081
vn -0.4123 0.0002 -0.9111
vn 0.4123 -0.0002 0.9111
vn -0.1369 -0.0002 0.9906
vn 0.1369 0.0002 -0.9906
vn -0.9807 0.0000 -0.1953
vn 0.9807 0.0000 -0.1953
vn -0.4123 -0.0002 0.9111
vn -0.1369 0.0002 -0.9906
vn 0.4123 0.0002 -0.9111
vn 0.1369 -0.0002 0.9906
vn -0.9807 -0.0000 0.1953
vn 0.9807 -0.0000 0.1953
vn 0.9513 0.0001 -0.3081
vn -0.9513 0.0001 -0.3081
vn -0.0000 -1.0000 -0.0002
vn -0.0266 0.9809 0.1929
vn 0.1995 0.9791 0.0399
vn 0.0266 0.9809 -0.1926
vn 0.0773 0.9823 -0.1706
vn 0.0773 0.9823 0.1709
vn 0.0266 0.9809 0.1929
vn -0.0773 0.9823 -0.1706
vn -0.0773 0.9823 0.1709
vn -0.1894 0.9800 -0.0612
vn -0.0266 0.9809 -0.1926
vn 0.1894 0.9800 -0.0612
vn 0.1894 0.9800 0.0615
vn -0.1995 0.9791 0.0399
vn -0.1995 0.9791 -0.0396
vn 0.1995 0.9791 -0.0396
vn -0.1894 0.9800 0.0615
vn -0.4123 0.0002 -0.9110
usemtl shell1
s off
f 28//1 29//1 4//1 2//1
f 33//2 30//2 8//2 18//2
f 30//3 31//3 6//3 8//3
f 20//4 19//4 5//4 7//4
f 25//5 24//5 2//5 4//5
f 18//6 21//6 12//6 10//6
f 23//7 26//7 11//7 9//7
f 34//2 32//2 10//2 25//2
f 41//2 38//2 17//2 27//2
f 36//8 37//8 16//8 15//8
f 40//2 36//2 15//2 22//2
f 39//9 35//9 14//9 13//9
f 38//2 40//2 22//2 17//2
f 8//10 6//10 21//10 18//10
f 9//11 11//11 19//11 20//11
f 32//2 33//2 18//2 10//2
f 35//2 41//2 27//2 14//2
f 29//2 34//2 25//2 4//2
f 3//12 1//12 26//12 23//12
f 10//13 12//13 24//13 25//13
f 14//2 27//2 34//2 29//2
f 17//2 22//2 33//2 32//2
f 27//2 17//2 32//2 34//2
f 15//14 16//14 31//14 30//14
f 22//2 15//2 30//2 33//2
f 13//15 14//15 29//15 28//15
f 3//2 23//2 41//2 35//2
f 9//2 20//2 40//2 38//2
f 1//16 3//16 35//16 39//16
f 20//2 7//2 36//2 40//2
f 7//17 5//17 37//17 36//17
f 23//2 9//2 38//2 41//2
usemtl shell2
f 37//8 63//8 74//8 16//8
f 24//5 66//5 62//5 2//5
f 11//11 68//11 65//11 19//11
f 1//12 76//12 67//12 26//12
f 19//4 65//4 64//4 5//4
f 5//17 64//17 63//17 37//17
f 2//1 62//1 61//1 28//1
f 16//14 74//14 73//14 31//14
f 12//13 70//13 66//13 24//13
f 21//6 69//6 70//6 12//6
f 31//3 73//3 75//3 6//3
f 39//16 71//16 76//16 1//16
f 26//7 67//7 68//7 11//7
f 6//10 75//10 69//10 21//10
f 13//9 72//9 71//9 39//9
f 28//15 61//15 72//15 13//15
f 58//10 100//10 92//10 50//10
f 45//17 99//17 96//17 44//17
f 49//11 78//11 86//11 46//11
f 52//16 97//16 101//16 59//16
f 43//1 98//1 95//1 42//1
f 55//14 84//14 94//14 54//14
f 44//8 96//8 84//8 55//8
f 53//9 83//9 97//9 52//9
f 54//3 94//3 100//3 58//3
f 50//6 92//6 91//6 51//6
f 42//15 95//15 83//15 53//15
f 48//7 89//7 78//7 49//7
f 59//12 101//12 89//12 48//12
f 47//5 93//5 98//5 43//5
f 51//13 91//13 93//13 47//13
f 46//4 86//4 99//4 45//4
f 42//18 61//18 62//18 43//18
f 44//18 63//18 64//18 45//18
f 45//18 64//18 65//18 46//18
f 43//18 62//18 66//18 47//18
f 49//18 68//18 67//18 48//18
f 51//18 70//18 69//18 50//18
f 52//18 71//18 72//18 53//18
f 54//18 73//18 74//18 55//18
f 46//18 65//18 68//18 49//18
f 50//18 69//18 75//18 58//18
f 47//18 66//18 70//18 51//18
f 48//18 67//18 76//18 59//18
f 53//18 72//18 61//18 42//18
f 58//18 75//18 73//18 54//18
f 55//18 74//18 63//18 44//18
f 59//18 76//18 71//18 52//18
f 92//19 105//19 104//19 91//19
f 95//20 108//20 57//20 83//20
f 89//21 103//21 60//21 78//21
f 101//22 114//22 103//22 89//22
f 93//23 106//23 111//23 98//23
f 91//24 104//24 106//24 93//24
f 86//25 102//25 112//25 99//25
f 100//26 113//26 105//26 92//26
f 99//27 112//27 109//27 96//27
f 78//28 60//28 102//28 86//28
f 97//29 110//29 114//29 101//29
f 98//30 111//30 108//30 95//30
f 84//31 56//31 107//31 94//31
f 96//32 109//32 56//32 84//32
f 83//33 57//33 110//33 97//33
f 94//34 107//34 113//34 100//34
f 104//13 120//13 122//13 106//13
f 102//35 81//35 128//35 112//35
f 113//10 129//10 121//10 105//10
f 112//17 128//17 125//17 109//17
f 60//11 116//11 81//11 102//11
f 110//16 126//16 130//16 114//16
f 111//1 127//1 124//1 108//1
f 56//14 80//14 123//14 107//14
f 109//8 125//8 80//8 56//8
f 57//9 79//9 126//9 110//9
f 107//3 123//3 129//3 113//3
f 105//6 121//6 120//6 104//6
f 108//15 124//15 79//15 57//15
f 103//7 118//7 116//7 60//7
f 114//12 130//12 118//12 103//12
f 106//5 122//5 127//5 111//5
f 119//18 124//18 127//18 122//18
f 87//18 77//18 120//18 121//18
f 82//18 115//18 90//18 85//18
f 117//18 126//18 79//18 88//18
f 125//18 82//18 85//18 80//18
f 123//18 87//18 121//18 129//18
f 115//18 117//18 88//18 90//18
f 77//18 119//18 122//18 120//18
f 90//18 88//18 119//18 77//18
f 80//18 85//18 87//18 123//18
f 85//18 90//18 77//18 87//18
f 88//18 79//18 124//18 119//18
f 116//18 118//18 117//18 115//18
f 128//18 81//18 82//18 125//18
f 118//18 130//18 126//18 117//18
f 81//18 116//18 115//18 82//18
